<svg xmlns="http://www.w3.org/2000/svg" width="472.67" height="96" viewBox="0 0 472.67 96" role="img" aria-label="bouncer">
  <g transform="translate(0 16) scale(0.53) translate(-72 -128)">
    <g transform="translate(22 100)">
    <g fill="none" stroke="#F2F4F8" stroke-width="16" stroke-linecap="round">
      <line x1="96" y1="44" x2="185" y2="44"/>
      <line x1="58" y1="88" x2="170" y2="88"/>
      <line x1="96" y1="132" x2="185" y2="132"/>
    </g>
    <circle cx="268" cy="88" r="64" fill="#2563EB"/>
  </g>
  </g>
  <g transform="translate(180.67 20) scale(0.2)" fill="#F2F4F8" fill-rule="nonzero">
    <path d="M 0 0 L 46 0 L 46 280 L 0 280 Z M 0 180 A 100 100 0 1 1 200 180 A 100 100 0 1 1 0 180 Z M 46 180 A 54 54 0 1 0 154 180 A 54 54 0 1 0 46 180 Z M 230 180 A 100 100 0 1 1 430 180 A 100 100 0 1 1 230 180 Z M 276 180 A 54 54 0 1 0 384 180 A 54 54 0 1 0 276 180 Z M 460 80 L 460 180 A 100 100 0 0 0 660 180 L 660 80 L 614 80 L 614 180 A 54 54 0 0 1 506 180 L 506 80 Z M 690 280 L 690 180 A 100 100 0 0 1 890 180 L 890 280 L 844 280 L 844 180 A 54 54 0 0 0 736 180 L 736 280 Z M 1077.36 98.08 A 100 100 0 1 0 1077.36 261.92 L 1050.97 224.23 A 54 54 0 1 1 1050.97 135.77 Z M 1287.32 203 A 100 100 0 1 0 1254.28 256.6 L 1224.71 221.37 A 54 54 0 0 1 1141.14 203 Z M 1141.14 157 A 54 54 0 0 1 1238.86 157 Z M 1320 280 L 1320 180 A 100 100 0 0 1 1420 80 L 1420 126 A 54 54 0 0 0 1366 180 L 1366 280 Z"/>
  </g>
</svg>
